<svg width="23" height="24" viewBox="0 0 23 24" fill="none" xmlns="http://www.w3.org/2000/svg">
<g id="icn bxs-star">
<path id="Vector" d="M20.1366 9.4125C20.079 9.24268 19.9729 9.09347 19.8314 8.98328C19.6899 8.8731 19.5192 8.80675 19.3405 8.79245L14.1113 8.37694L11.8485 3.36792C11.7764 3.20659 11.6592 3.06957 11.511 2.97338C11.3628 2.8772 11.1899 2.82596 11.0132 2.82587C10.8365 2.82577 10.6636 2.87681 10.5152 2.97283C10.3669 3.06886 10.2496 3.20575 10.1773 3.36701L7.91449 8.37694L2.68534 8.79245C2.50965 8.80636 2.34169 8.8706 2.20155 8.97748C2.06141 9.08436 1.95503 9.22934 1.89514 9.39509C1.83524 9.56085 1.82437 9.74035 1.86382 9.91212C1.90326 10.0839 1.99136 10.2407 2.11757 10.3637L5.98188 14.1307L4.6152 20.0487C4.5737 20.2279 4.58701 20.4153 4.65338 20.5868C4.71975 20.7583 4.83613 20.9059 4.98742 21.0104C5.13871 21.1149 5.31791 21.1716 5.50179 21.173C5.68566 21.1744 5.86571 21.1205 6.01857 21.0183L11.0129 17.6887L16.0073 21.0183C16.1635 21.122 16.3477 21.1754 16.5352 21.1713C16.7227 21.1672 16.9045 21.1057 17.056 20.9953C17.2076 20.8848 17.3216 20.7305 17.3829 20.5533C17.4442 20.376 17.4497 20.1843 17.3987 20.0038L15.7211 14.1335L19.8816 10.3893C20.1541 10.1435 20.254 9.76013 20.1366 9.4125Z" fill="#F3CD03"/>
</g>
</svg>
